<svg width="129" height="42" viewBox="0 0 129 42" fill="none" xmlns="http://www.w3.org/2000/svg">
<path d="M27.544 22.24C27.352 22.24 27.152 22.208 26.944 22.144C26.752 22.08 26.592 21.928 26.464 21.688C26.336 21.448 26.272 21.08 26.272 20.584C26.272 20.232 26.296 19.8 26.344 19.288C26.408 18.776 26.488 18.224 26.584 17.632C26.712 16.832 26.816 15.992 26.896 15.112C26.992 14.216 27.04 13.304 27.04 12.376C27.04 11.624 27 10.976 26.92 10.432C26.856 9.872 26.768 9.44 26.656 9.136C26.048 9.152 25.472 9.192 24.928 9.256C24.384 9.32 23.832 9.424 23.272 9.568C23.128 9.584 23 9.608 22.888 9.64C22.792 9.656 22.696 9.664 22.6 9.664C22.456 9.664 22.352 9.64 22.288 9.592C22.224 9.528 22.192 9.384 22.192 9.16C22.192 8.888 22.232 8.608 22.312 8.32C22.392 8.016 22.512 7.76 22.672 7.552C22.832 7.328 23.016 7.168 23.224 7.072C23.448 6.96 23.688 6.888 23.944 6.856C24.344 6.808 24.856 6.768 25.48 6.736C26.104 6.688 26.784 6.648 27.52 6.616C28.272 6.584 29.008 6.568 29.728 6.568C30.896 6.568 31.728 6.576 32.224 6.592C32.736 6.608 33.08 6.632 33.256 6.664C33.48 6.696 33.632 6.768 33.712 6.88C33.808 6.976 33.856 7.136 33.856 7.36C33.856 7.792 33.664 8.224 33.28 8.656C33.12 8.848 32.952 9 32.776 9.112C32.6 9.208 32.368 9.248 32.08 9.232C31.824 9.2 31.448 9.176 30.952 9.16C30.456 9.144 29.904 9.136 29.296 9.136C29.28 9.696 29.232 10.352 29.152 11.104C29.088 11.84 29.008 12.584 28.912 13.336C28.816 14.072 28.736 14.808 28.672 15.544C28.608 16.28 28.576 16.952 28.576 17.56C28.576 18.12 28.624 18.616 28.72 19.048C28.832 19.464 29.048 19.824 29.368 20.128C29.592 20.352 29.704 20.592 29.704 20.848C29.704 21.2 29.504 21.52 29.104 21.808C28.704 22.096 28.184 22.24 27.544 22.24ZM33.2783 22.312C32.3183 22.312 31.5423 22.016 30.9503 21.424C30.3743 20.816 30.0863 19.952 30.0863 18.832C30.0863 18.032 30.2383 17.24 30.5423 16.456C30.8623 15.656 31.3183 14.936 31.9103 14.296C32.5023 13.656 33.2143 13.144 34.0463 12.76C34.8783 12.376 35.8143 12.184 36.8543 12.184C37.8143 12.184 38.6303 12.352 39.3023 12.688C39.9903 13.008 40.3343 13.448 40.3343 14.008C40.3343 14.152 40.3183 14.344 40.2863 14.584C40.2543 14.808 40.2143 14.992 40.1663 15.136C40.1183 15.264 40.0463 15.384 39.9503 15.496C39.8703 15.592 39.7583 15.64 39.6143 15.64C39.5503 15.64 39.4303 15.616 39.2543 15.568C39.1903 15.904 39.1423 16.232 39.1103 16.552C39.0783 16.872 39.0623 17.192 39.0623 17.512C39.0623 18.12 39.1503 18.664 39.3263 19.144C39.5183 19.608 39.8863 19.896 40.4303 20.008C40.5743 20.04 40.6863 20.088 40.7663 20.152C40.8623 20.216 40.9103 20.352 40.9103 20.56C40.9103 20.736 40.8623 20.96 40.7663 21.232C40.6863 21.504 40.5183 21.752 40.2623 21.976C40.0223 22.184 39.6703 22.288 39.2063 22.288C38.5823 22.288 38.1023 22.064 37.7663 21.616C37.4303 21.152 37.2623 20.496 37.2623 19.648C36.8303 20.432 36.2783 21.072 35.6063 21.568C34.9503 22.064 34.1743 22.312 33.2783 22.312ZM34.0463 19.816C34.6863 19.816 35.2463 19.616 35.7263 19.216C36.2223 18.816 36.6063 18.312 36.8783 17.704C37.0543 17.32 37.1903 16.904 37.2863 16.456C37.3823 15.992 37.4463 15.536 37.4783 15.088C37.2063 14.96 36.8943 14.856 36.5423 14.776C36.1903 14.696 35.8223 14.656 35.4383 14.656C34.4623 14.656 33.6543 14.944 33.0143 15.52C32.3903 16.096 32.0783 16.816 32.0783 17.68C32.0783 18.32 32.2543 18.84 32.6063 19.24C32.9583 19.624 33.4383 19.816 34.0463 19.816ZM43.8841 22.312C43.2921 22.312 42.7401 22.224 42.2281 22.048C41.7161 21.872 41.3001 21.624 40.9801 21.304C40.6601 20.984 40.5001 20.6 40.5001 20.152C40.5001 19.912 40.5561 19.688 40.6681 19.48C40.7961 19.256 40.9961 19.144 41.2681 19.144C41.4121 19.144 41.5641 19.184 41.7241 19.264C42.0121 19.424 42.3801 19.576 42.8281 19.72C43.2761 19.848 43.7481 19.912 44.2441 19.912C44.8041 19.912 45.3001 19.832 45.7321 19.672C46.1641 19.512 46.3801 19.288 46.3801 19C46.3801 18.776 46.2121 18.616 45.8761 18.52C45.5561 18.424 45.0121 18.32 44.2441 18.208C43.7161 18.112 43.2041 18 42.7081 17.872C42.2121 17.744 41.8041 17.528 41.4841 17.224C41.1641 16.904 41.0041 16.44 41.0041 15.832C41.0041 15.24 41.1641 14.672 41.4841 14.128C41.8201 13.568 42.3161 13.104 42.9721 12.736C43.6281 12.368 44.4281 12.184 45.3721 12.184C45.8681 12.184 46.3481 12.24 46.8121 12.352C47.2761 12.464 47.6601 12.632 47.9641 12.856C48.2681 13.08 48.4201 13.36 48.4201 13.696C48.4201 13.984 48.3161 14.248 48.1081 14.488C47.9161 14.728 47.6841 14.928 47.4121 15.088C47.1561 15.232 46.9401 15.304 46.7641 15.304C46.6361 15.304 46.4841 15.216 46.3081 15.04C46.0361 14.816 45.7321 14.664 45.3961 14.584C45.0761 14.488 44.7561 14.44 44.4361 14.44C43.9561 14.44 43.5641 14.512 43.2601 14.656C42.9721 14.8 42.8281 14.984 42.8281 15.208C42.8281 15.416 42.9481 15.584 43.1881 15.712C43.4441 15.84 43.7561 15.936 44.1241 16C44.4921 16.048 44.8441 16.096 45.1801 16.144C46.1081 16.272 46.8441 16.496 47.3881 16.816C47.9321 17.12 48.2041 17.664 48.2041 18.448C48.2041 19.056 48.0281 19.664 47.6761 20.272C47.3401 20.864 46.8441 21.352 46.1881 21.736C45.5481 22.12 44.7801 22.312 43.8841 22.312ZM52.1026 22.312C51.1266 22.312 50.4226 21.992 49.9906 21.352C49.5746 20.696 49.3666 19.856 49.3666 18.832C49.3666 18.464 49.3826 18.104 49.4146 17.752C49.4626 17.4 49.5106 17.048 49.5586 16.696C49.6066 16.344 49.6546 16 49.7026 15.664C49.7506 15.328 49.7906 15.008 49.8226 14.704C49.4866 14.8 49.1506 14.848 48.8146 14.848C48.4626 14.848 48.2866 14.704 48.2866 14.416C48.2866 14.112 48.4226 13.744 48.6946 13.312C48.9666 12.864 49.3026 12.424 49.7026 11.992C50.1186 11.56 50.5266 11.2 50.9266 10.912C51.3426 10.608 51.6946 10.456 51.9826 10.456C52.3346 10.456 52.5106 10.76 52.5106 11.368C52.5106 11.528 52.4946 11.696 52.4626 11.872C52.4466 12.032 52.4226 12.2 52.3906 12.376C52.6946 12.312 52.9986 12.256 53.3026 12.208C53.6226 12.16 53.9266 12.136 54.2146 12.136C54.5826 12.136 54.8626 12.2 55.0546 12.328C55.2626 12.456 55.3666 12.704 55.3666 13.072C55.3666 13.456 55.2706 13.84 55.0786 14.224C54.9026 14.608 54.7026 14.8 54.4786 14.8C54.4306 14.8 54.3506 14.792 54.2386 14.776C54.1266 14.76 53.9906 14.736 53.8306 14.704C53.6226 14.656 53.3586 14.608 53.0386 14.56C52.7186 14.512 52.3346 14.488 51.8866 14.488C51.7746 14.984 51.6706 15.496 51.5746 16.024C51.4946 16.536 51.4546 17 51.4546 17.416C51.4546 18.344 51.6866 18.976 52.1506 19.312C52.6146 19.648 53.2866 19.816 54.1666 19.816C54.4386 19.816 54.6306 19.864 54.7426 19.96C54.8546 20.04 54.9106 20.192 54.9106 20.416C54.9106 20.944 54.6386 21.392 54.0946 21.76C53.5506 22.128 52.8866 22.312 52.1026 22.312ZM55.6296 28.624C54.9736 28.624 54.4136 28.448 53.9496 28.096C53.4696 27.744 53.2296 27.272 53.2296 26.68C53.2296 26.216 53.3736 25.816 53.6616 25.48C53.9336 25.16 54.2776 25 54.6936 25C54.8856 25 55.0216 25.032 55.1016 25.096C55.1816 25.16 55.2456 25.232 55.2936 25.312C55.4216 25.52 55.5656 25.696 55.7256 25.84C55.9016 26 56.1336 26.08 56.4216 26.08C56.8056 26.08 57.1736 25.944 57.5256 25.672C57.8936 25.4 58.2296 25.088 58.5336 24.736C58.8056 24.432 59.1336 23.992 59.5176 23.416C59.9016 22.856 60.2856 22.216 60.6696 21.496C60.3176 21.8 59.9896 22.016 59.6856 22.144C59.3816 22.288 59.0936 22.36 58.8216 22.36C58.4856 22.36 58.1576 22.24 57.8376 22C57.5176 21.744 57.3176 21.272 57.2376 20.584C57.1896 20.056 57.0936 19.472 56.9496 18.832C56.8216 18.192 56.6536 17.576 56.4456 16.984C56.2536 16.376 56.0136 15.864 55.7256 15.448C55.6136 15.256 55.4856 15.112 55.3416 15.016C55.1976 14.92 54.9896 14.856 54.7176 14.824C54.5256 14.808 54.3976 14.752 54.3336 14.656C54.2856 14.56 54.2616 14.408 54.2616 14.2C54.2616 13.624 54.4216 13.16 54.7416 12.808C55.0616 12.456 55.4936 12.28 56.0376 12.28C56.6936 12.28 57.1656 12.536 57.4536 13.048C57.7416 13.544 57.9896 14.152 58.1976 14.872C58.2776 15.16 58.3576 15.544 58.4376 16.024C58.5336 16.488 58.6136 16.992 58.6776 17.536C58.7576 18.08 58.8136 18.6 58.8456 19.096C58.8616 19.448 59.0616 19.624 59.4456 19.624C59.9576 19.624 60.4456 19.464 60.9096 19.144C61.3736 18.824 61.7496 18.408 62.0376 17.896C62.3416 17.384 62.4936 16.848 62.4936 16.288C62.4936 15.968 62.4536 15.68 62.3736 15.424C62.2936 15.168 62.1576 14.944 61.9656 14.752C61.8056 14.56 61.6776 14.408 61.5816 14.296C61.4856 14.168 61.4376 14.024 61.4376 13.864C61.4376 13.592 61.5656 13.336 61.8216 13.096C62.0776 12.856 62.3816 12.656 62.7336 12.496C63.1016 12.336 63.4216 12.256 63.6936 12.256C64.1736 12.256 64.4936 12.488 64.6536 12.952C64.8136 13.4 64.8536 13.896 64.7736 14.44C64.6776 15.192 64.4856 16.08 64.1976 17.104C63.9096 18.128 63.5336 19.2 63.0696 20.32C62.6216 21.44 62.1016 22.52 61.5096 23.56C60.9336 24.616 60.3176 25.536 59.6616 26.32C59.1016 27.008 58.4776 27.56 57.7896 27.976C57.1016 28.408 56.3816 28.624 55.6296 28.624Z" fill="white"/>
<path d="M69.5112 22.24C69.3192 22.24 69.1192 22.208 68.9112 22.144C68.7192 22.08 68.5592 21.928 68.4312 21.688C68.3032 21.448 68.2392 21.08 68.2392 20.584C68.2392 20.232 68.2632 19.8 68.3112 19.288C68.3752 18.776 68.4552 18.224 68.5512 17.632C68.6792 16.832 68.7832 15.992 68.8632 15.112C68.9592 14.216 69.0072 13.304 69.0072 12.376C69.0072 11.624 68.9672 10.976 68.8872 10.432C68.8232 9.872 68.7352 9.44 68.6232 9.136C68.0152 9.152 67.4392 9.192 66.8952 9.256C66.3512 9.32 65.7992 9.424 65.2392 9.568C65.0952 9.584 64.9672 9.608 64.8552 9.64C64.7592 9.656 64.6632 9.664 64.5672 9.664C64.4232 9.664 64.3192 9.64 64.2552 9.592C64.1912 9.528 64.1592 9.384 64.1592 9.16C64.1592 8.888 64.1992 8.608 64.2792 8.32C64.3592 8.016 64.4792 7.76 64.6392 7.552C64.7992 7.328 64.9832 7.168 65.1912 7.072C65.4152 6.96 65.6552 6.888 65.9112 6.856C66.3112 6.808 66.8232 6.768 67.4472 6.736C68.0712 6.688 68.7512 6.648 69.4872 6.616C70.2392 6.584 70.9752 6.568 71.6952 6.568C72.8632 6.568 73.6952 6.576 74.1912 6.592C74.7032 6.608 75.0472 6.632 75.2232 6.664C75.4472 6.696 75.5992 6.768 75.6792 6.88C75.7752 6.976 75.8232 7.136 75.8232 7.36C75.8232 7.792 75.6312 8.224 75.2472 8.656C75.0872 8.848 74.9192 9 74.7432 9.112C74.5672 9.208 74.3352 9.248 74.0472 9.232C73.7912 9.2 73.4152 9.176 72.9192 9.16C72.4232 9.144 71.8712 9.136 71.2632 9.136C71.2472 9.696 71.1992 10.352 71.1192 11.104C71.0552 11.84 70.9752 12.584 70.8792 13.336C70.7832 14.072 70.7032 14.808 70.6392 15.544C70.5752 16.28 70.5432 16.952 70.5432 17.56C70.5432 18.12 70.5912 18.616 70.6872 19.048C70.7992 19.464 71.0152 19.824 71.3352 20.128C71.5592 20.352 71.6712 20.592 71.6712 20.848C71.6712 21.2 71.4712 21.52 71.0712 21.808C70.6712 22.096 70.1512 22.24 69.5112 22.24ZM74.2251 22.264C73.9691 22.264 73.7611 22.216 73.6011 22.12C73.4571 22.04 73.4091 21.896 73.4571 21.688C73.6331 21 73.7771 20.304 73.8891 19.6C74.0171 18.88 74.0811 18.192 74.0811 17.536C74.0811 16.688 74.0251 16.072 73.9131 15.688C73.8171 15.288 73.6811 15.016 73.5051 14.872C73.3291 14.712 73.1131 14.592 72.8571 14.512C72.7451 14.464 72.6411 14.4 72.5451 14.32C72.4651 14.24 72.4251 14.128 72.4251 13.984C72.4251 13.76 72.5131 13.512 72.6891 13.24C72.8651 12.968 73.1131 12.736 73.4331 12.544C73.7531 12.336 74.1211 12.232 74.5371 12.232C75.0811 12.232 75.4571 12.424 75.6651 12.808C75.8891 13.176 76.0011 13.664 76.0011 14.272C76.2891 13.632 76.6411 13.128 77.0571 12.76C77.4891 12.376 78.0251 12.184 78.6651 12.184C79.0971 12.184 79.4571 12.28 79.7451 12.472C80.0331 12.664 80.1771 12.976 80.1771 13.408C80.1771 13.84 80.0331 14.248 79.7451 14.632C79.4731 15 79.1931 15.184 78.9051 15.184C78.8571 15.184 78.8011 15.176 78.7371 15.16C78.6731 15.144 78.6171 15.104 78.5691 15.04C78.3611 14.784 78.1051 14.656 77.8011 14.656C77.3371 14.656 76.9291 14.96 76.5771 15.568C76.2251 16.176 76.0331 17.016 76.0011 18.088C76.0171 18.488 76.0251 18.896 76.0251 19.312C76.0411 19.728 76.0491 20.032 76.0491 20.224C76.0491 20.816 75.8811 21.304 75.5451 21.688C75.2251 22.072 74.7851 22.264 74.2251 22.264ZM81.7921 22.312C80.8321 22.312 80.0561 22.016 79.4641 21.424C78.8881 20.816 78.6001 19.952 78.6001 18.832C78.6001 18.032 78.7521 17.24 79.0561 16.456C79.3761 15.656 79.8321 14.936 80.4241 14.296C81.0161 13.656 81.7281 13.144 82.5601 12.76C83.3921 12.376 84.3281 12.184 85.3681 12.184C86.3281 12.184 87.1441 12.352 87.8161 12.688C88.5041 13.008 88.8481 13.448 88.8481 14.008C88.8481 14.152 88.8321 14.344 88.8001 14.584C88.7681 14.808 88.7281 14.992 88.6801 15.136C88.6321 15.264 88.5601 15.384 88.4641 15.496C88.3841 15.592 88.2721 15.64 88.1281 15.64C88.0641 15.64 87.9441 15.616 87.7681 15.568C87.7041 15.904 87.6561 16.232 87.6241 16.552C87.5921 16.872 87.5761 17.192 87.5761 17.512C87.5761 18.12 87.6641 18.664 87.8401 19.144C88.0321 19.608 88.4001 19.896 88.9441 20.008C89.0881 20.04 89.2001 20.088 89.2801 20.152C89.3761 20.216 89.4241 20.352 89.4241 20.56C89.4241 20.736 89.3761 20.96 89.2801 21.232C89.2001 21.504 89.0321 21.752 88.7761 21.976C88.5361 22.184 88.1841 22.288 87.7201 22.288C87.0961 22.288 86.6161 22.064 86.2801 21.616C85.9441 21.152 85.7761 20.496 85.7761 19.648C85.3441 20.432 84.7921 21.072 84.1201 21.568C83.4641 22.064 82.6881 22.312 81.7921 22.312ZM82.5601 19.816C83.2001 19.816 83.7601 19.616 84.2401 19.216C84.7361 18.816 85.1201 18.312 85.3921 17.704C85.5681 17.32 85.7041 16.904 85.8001 16.456C85.8961 15.992 85.9601 15.536 85.9921 15.088C85.7201 14.96 85.4081 14.856 85.0561 14.776C84.7041 14.696 84.3361 14.656 83.9521 14.656C82.9761 14.656 82.1681 14.944 81.5281 15.52C80.9041 16.096 80.5921 16.816 80.5921 17.68C80.5921 18.32 80.7681 18.84 81.1201 19.24C81.4721 19.624 81.9521 19.816 82.5601 19.816ZM91.2458 10.072C90.7978 10.056 90.4378 9.92 90.1658 9.664C89.8938 9.408 89.7578 9.048 89.7578 8.584C89.7738 8.088 89.9418 7.688 90.2618 7.384C90.5818 7.064 90.9898 6.912 91.4858 6.928C91.9498 6.944 92.3098 7.08 92.5658 7.336C92.8378 7.592 92.9658 7.952 92.9498 8.416C92.9338 8.896 92.7738 9.296 92.4698 9.616C92.1658 9.92 91.7578 10.072 91.2458 10.072ZM91.2698 22.24C90.7898 22.24 90.4138 22.112 90.1418 21.856C89.8698 21.584 89.7338 21.128 89.7338 20.488C89.7338 20.12 89.7658 19.76 89.8298 19.408C89.9098 19.056 89.9978 18.712 90.0938 18.376C90.2058 18.024 90.2938 17.664 90.3578 17.296C90.4378 16.928 90.4778 16.536 90.4778 16.12C90.4778 15.832 90.4378 15.56 90.3578 15.304C90.2778 15.032 90.1018 14.832 89.8298 14.704C89.6218 14.592 89.4378 14.48 89.2778 14.368C89.1338 14.24 89.0618 14.08 89.0618 13.888C89.0618 13.664 89.1658 13.424 89.3738 13.168C89.5818 12.912 89.8538 12.696 90.1898 12.52C90.5418 12.328 90.9018 12.232 91.2698 12.232C91.6698 12.232 91.9578 12.336 92.1338 12.544C92.3258 12.752 92.4538 13.016 92.5178 13.336C92.5818 13.656 92.6138 13.984 92.6138 14.32C92.6138 14.832 92.5738 15.336 92.4938 15.832C92.4138 16.312 92.3338 16.76 92.2538 17.176C92.1898 17.48 92.1418 17.76 92.1098 18.016C92.0778 18.272 92.0618 18.512 92.0618 18.736C92.0618 19.136 92.1578 19.44 92.3498 19.648C92.5418 19.84 92.8138 20.024 93.1658 20.2C93.3098 20.28 93.3818 20.4 93.3818 20.56C93.3818 20.688 93.3178 20.888 93.1898 21.16C93.0618 21.432 92.8378 21.68 92.5178 21.904C92.2138 22.128 91.7978 22.24 91.2698 22.24ZM95.2789 22.24C94.8149 22.24 94.4709 22.112 94.2469 21.856C94.0229 21.6 93.9109 21.152 93.9109 20.512C93.9109 20.208 93.9349 19.816 93.9829 19.336C94.0309 18.856 94.0869 18.336 94.1509 17.776C94.2469 17.088 94.3269 16.368 94.3909 15.616C94.4709 14.864 94.5109 14.144 94.5109 13.456C94.5109 12.48 94.4629 11.472 94.3669 10.432C94.2869 9.376 94.0469 8.456 93.6469 7.672C93.5029 7.352 93.4309 7.12 93.4309 6.976C93.4309 6.768 93.5189 6.568 93.6949 6.376C93.8869 6.184 94.1189 6.024 94.3909 5.896C94.6629 5.752 94.9269 5.68 95.1829 5.68C95.5989 5.68 95.9109 5.872 96.1189 6.256C96.3269 6.624 96.4629 7.136 96.5269 7.792C96.5909 8.432 96.6229 9.168 96.6229 10C96.6229 11.264 96.5669 12.36 96.4549 13.288C96.3589 14.216 96.2629 15.032 96.1669 15.736C96.1029 16.2 96.0389 16.64 95.9749 17.056C95.9269 17.472 95.9029 17.848 95.9029 18.184C95.9029 18.744 95.9909 19.152 96.1669 19.408C96.3589 19.648 96.6629 19.888 97.0789 20.128C97.1909 20.192 97.2709 20.256 97.3189 20.32C97.3829 20.368 97.4149 20.448 97.4149 20.56C97.4149 20.688 97.3509 20.888 97.2229 21.16C97.0949 21.432 96.8709 21.68 96.5509 21.904C96.2469 22.128 95.8229 22.24 95.2789 22.24ZM100.452 22.312C99.8599 22.312 99.3079 22.224 98.7959 22.048C98.2839 21.872 97.8679 21.624 97.5479 21.304C97.2279 20.984 97.0679 20.6 97.0679 20.152C97.0679 19.912 97.1239 19.688 97.2359 19.48C97.3639 19.256 97.5639 19.144 97.8359 19.144C97.9799 19.144 98.1319 19.184 98.2919 19.264C98.5799 19.424 98.9479 19.576 99.3959 19.72C99.8439 19.848 100.316 19.912 100.812 19.912C101.372 19.912 101.868 19.832 102.3 19.672C102.732 19.512 102.948 19.288 102.948 19C102.948 18.776 102.78 18.616 102.444 18.52C102.124 18.424 101.58 18.32 100.812 18.208C100.284 18.112 99.7719 18 99.2759 17.872C98.7799 17.744 98.3719 17.528 98.0519 17.224C97.7319 16.904 97.5719 16.44 97.5719 15.832C97.5719 15.24 97.7319 14.672 98.0519 14.128C98.3879 13.568 98.8839 13.104 99.5399 12.736C100.196 12.368 100.996 12.184 101.94 12.184C102.436 12.184 102.916 12.24 103.38 12.352C103.844 12.464 104.228 12.632 104.532 12.856C104.836 13.08 104.988 13.36 104.988 13.696C104.988 13.984 104.884 14.248 104.676 14.488C104.484 14.728 104.252 14.928 103.98 15.088C103.724 15.232 103.508 15.304 103.332 15.304C103.204 15.304 103.052 15.216 102.876 15.04C102.604 14.816 102.3 14.664 101.964 14.584C101.644 14.488 101.324 14.44 101.004 14.44C100.524 14.44 100.132 14.512 99.8279 14.656C99.5399 14.8 99.3959 14.984 99.3959 15.208C99.3959 15.416 99.5159 15.584 99.7559 15.712C100.012 15.84 100.324 15.936 100.692 16C101.06 16.048 101.412 16.096 101.748 16.144C102.676 16.272 103.412 16.496 103.956 16.816C104.5 17.12 104.772 17.664 104.772 18.448C104.772 19.056 104.596 19.664 104.244 20.272C103.908 20.864 103.412 21.352 102.756 21.736C102.116 22.12 101.348 22.312 100.452 22.312Z" fill="#FFCE3A"/>
<path d="M0.572028 32.77H4.86203V33.7H1.54203V36.01H4.45203V36.93H1.54203V40H0.572028V32.77ZM4.63359 37.89C4.63359 37.4767 4.73026 37.1033 4.92359 36.77C5.12359 36.4367 5.39692 36.1733 5.74359 35.98C6.09026 35.7867 6.48359 35.69 6.92359 35.69C7.37692 35.69 7.77359 35.7867 8.11359 35.98C8.45359 36.1733 8.71692 36.4367 8.90359 36.77C9.09026 37.1033 9.18359 37.4767 9.18359 37.89C9.18359 38.3033 9.09026 38.68 8.90359 39.02C8.71692 39.3533 8.45026 39.6167 8.10359 39.81C7.76359 40.0033 7.36692 40.1 6.91359 40.1C6.47359 40.1 6.08026 40.01 5.73359 39.83C5.39359 39.6433 5.12359 39.3867 4.92359 39.06C4.73026 38.7267 4.63359 38.3367 4.63359 37.89ZM5.56359 37.9C5.56359 38.1667 5.62359 38.41 5.74359 38.63C5.86359 38.8433 6.02359 39.0133 6.22359 39.14C6.43026 39.2667 6.65692 39.33 6.90359 39.33C7.16359 39.33 7.39359 39.2667 7.59359 39.14C7.80026 39.0133 7.96026 38.8433 8.07359 38.63C8.18692 38.41 8.24359 38.1667 8.24359 37.9C8.24359 37.6333 8.18692 37.3933 8.07359 37.18C7.96026 36.96 7.80026 36.7867 7.59359 36.66C7.39359 36.5267 7.16359 36.46 6.90359 36.46C6.65026 36.46 6.42026 36.5267 6.21359 36.66C6.01359 36.7933 5.85359 36.97 5.73359 37.19C5.62026 37.4033 5.56359 37.64 5.56359 37.9ZM9.74281 32.26H10.6728V40H9.74281V32.26ZM11.5819 32.26H12.5119V40H11.5819V32.26ZM13.0609 37.89C13.0609 37.4767 13.1576 37.1033 13.3509 36.77C13.5509 36.4367 13.8243 36.1733 14.1709 35.98C14.5176 35.7867 14.9109 35.69 15.3509 35.69C15.8043 35.69 16.2009 35.7867 16.5409 35.98C16.8809 36.1733 17.1443 36.4367 17.3309 36.77C17.5176 37.1033 17.6109 37.4767 17.6109 37.89C17.6109 38.3033 17.5176 38.68 17.3309 39.02C17.1443 39.3533 16.8776 39.6167 16.5309 39.81C16.1909 40.0033 15.7943 40.1 15.3409 40.1C14.9009 40.1 14.5076 40.01 14.1609 39.83C13.8209 39.6433 13.5509 39.3867 13.3509 39.06C13.1576 38.7267 13.0609 38.3367 13.0609 37.89ZM13.9909 37.9C13.9909 38.1667 14.0509 38.41 14.1709 38.63C14.2909 38.8433 14.4509 39.0133 14.6509 39.14C14.8576 39.2667 15.0843 39.33 15.3309 39.33C15.5909 39.33 15.8209 39.2667 16.0209 39.14C16.2276 39.0133 16.3876 38.8433 16.5009 38.63C16.6143 38.41 16.6709 38.1667 16.6709 37.9C16.6709 37.6333 16.6143 37.3933 16.5009 37.18C16.3876 36.96 16.2276 36.7867 16.0209 36.66C15.8209 36.5267 15.5909 36.46 15.3309 36.46C15.0776 36.46 14.8476 36.5267 14.6409 36.66C14.4409 36.7933 14.2809 36.97 14.1609 37.19C14.0476 37.4033 13.9909 37.64 13.9909 37.9ZM20.6932 35.86L21.9132 38.65L21.7332 38.67L22.8732 35.86H23.7832L21.8832 40.25L20.5532 37.41L19.3432 40.25L17.4232 35.86H18.3332L19.6232 38.78L19.3032 38.72L20.2232 36.58L19.8932 35.86H20.6932ZM26.9455 34.04H27.8755V35.88H29.0155V36.61H27.8755V40H26.9455V36.61H26.1855V35.88H26.9455V34.04ZM29.4393 40V32.26H30.3493V36.82L30.3293 36.65C30.4693 36.3767 30.6826 36.15 30.9693 35.97C31.2626 35.79 31.606 35.7 31.9993 35.7C32.3926 35.7 32.7126 35.8167 32.9593 36.05C33.2126 36.2767 33.3426 36.5733 33.3493 36.94V40H32.4093V37.27C32.4026 37.0433 32.336 36.86 32.2093 36.72C32.0893 36.5733 31.8993 36.5 31.6393 36.5C31.3993 36.5 31.1826 36.57 30.9893 36.71C30.796 36.8433 30.6426 37.0267 30.5293 37.26C30.4226 37.4933 30.3693 37.76 30.3693 38.06V40H29.4393ZM36.1866 40.1C35.7133 40.1 35.3066 40.0067 34.9666 39.82C34.6266 39.6267 34.3633 39.3667 34.1766 39.04C33.9966 38.7067 33.9066 38.3267 33.9066 37.9C33.9066 37.4933 34.01 37.1233 34.2166 36.79C34.4233 36.4567 34.7 36.19 35.0466 35.99C35.3933 35.79 35.78 35.69 36.2066 35.69C36.7533 35.69 37.2066 35.85 37.5666 36.17C37.9266 36.49 38.17 36.93 38.2966 37.49L34.8866 38.69L34.6666 38.14L37.4666 37.12L37.2666 37.25C37.1866 37.03 37.0533 36.84 36.8666 36.68C36.68 36.5133 36.4366 36.43 36.1366 36.43C35.8833 36.43 35.6566 36.4933 35.4566 36.62C35.2566 36.74 35.1 36.9067 34.9866 37.12C34.8733 37.3333 34.8166 37.5767 34.8166 37.85C34.8166 38.1367 34.8766 38.39 34.9966 38.61C35.1166 38.8233 35.28 38.9933 35.4866 39.12C35.7 39.24 35.94 39.3 36.2066 39.3C36.3866 39.3 36.56 39.2667 36.7266 39.2C36.9 39.1333 37.06 39.0467 37.2066 38.94L37.6366 39.63C37.43 39.77 37.1966 39.8833 36.9366 39.97C36.6833 40.0567 36.4333 40.1 36.1866 40.1ZM41.626 34.04H42.556V35.88H43.696V36.61H42.556V40H41.626V36.61H40.866V35.88H41.626V34.04ZM44.9498 35.86L45.0398 37.06L44.9898 36.9C45.0964 36.6467 45.2498 36.4333 45.4498 36.26C45.6564 36.08 45.8698 35.9433 46.0898 35.85C46.3164 35.75 46.5131 35.7 46.6798 35.7L46.6298 36.62C46.3164 36.6 46.0398 36.66 45.7998 36.8C45.5664 36.94 45.3798 37.1267 45.2398 37.36C45.1064 37.5933 45.0398 37.8433 45.0398 38.11V40H44.1198V35.86H44.9498ZM48.8019 40.1C48.4152 40.1 48.0619 40.0167 47.7419 39.85C47.4285 39.6833 47.1785 39.44 46.9919 39.12C46.8119 38.7933 46.7219 38.3967 46.7219 37.93C46.7219 37.47 46.8185 37.0733 47.0119 36.74C47.2052 36.4 47.4619 36.14 47.7819 35.96C48.1085 35.78 48.4652 35.69 48.8519 35.69C49.2385 35.69 49.5652 35.78 49.8319 35.96C50.0985 36.1333 50.3019 36.34 50.4419 36.58L50.3819 36.74L50.4719 35.86H51.3319V40H50.4019V38.92L50.5019 39.16C50.4752 39.2267 50.4152 39.3133 50.3219 39.42C50.2352 39.52 50.1152 39.6233 49.9619 39.73C49.8152 39.8367 49.6452 39.9267 49.4519 40C49.2585 40.0667 49.0419 40.1 48.8019 40.1ZM49.0519 39.33C49.2852 39.33 49.4952 39.2867 49.6819 39.2C49.8685 39.1133 50.0219 38.9933 50.1419 38.84C50.2685 38.68 50.3552 38.49 50.4019 38.27V37.46C50.3485 37.26 50.2552 37.0867 50.1219 36.94C49.9885 36.7867 49.8285 36.67 49.6419 36.59C49.4552 36.5033 49.2485 36.46 49.0219 36.46C48.7752 36.46 48.5485 36.52 48.3419 36.64C48.1352 36.76 47.9685 36.9267 47.8419 37.14C47.7219 37.3533 47.6619 37.6033 47.6619 37.89C47.6619 38.1567 47.7252 38.4 47.8519 38.62C47.9785 38.84 48.1485 39.0133 48.3619 39.14C48.5752 39.2667 48.8052 39.33 49.0519 39.33ZM52.2412 35.86H53.1712V40H52.2412V35.86ZM52.1712 34.36C52.1712 34.2133 52.2279 34.09 52.3412 33.99C52.4612 33.89 52.5912 33.84 52.7312 33.84C52.8712 33.84 52.9946 33.89 53.1012 33.99C53.2146 34.09 53.2712 34.2133 53.2712 34.36C53.2712 34.5133 53.2146 34.64 53.1012 34.74C52.9946 34.8333 52.8712 34.88 52.7312 34.88C52.5912 34.88 52.4612 34.83 52.3412 34.73C52.2279 34.63 52.1712 34.5067 52.1712 34.36ZM54.0803 32.26H55.0103V40H54.0803V32.26ZM58.7834 34.04H59.7134V35.88H60.8534V36.61H59.7134V40H58.7834V36.61H58.0234V35.88H58.7834V34.04ZM60.9172 37.89C60.9172 37.4767 61.0139 37.1033 61.2072 36.77C61.4072 36.4367 61.6805 36.1733 62.0272 35.98C62.3739 35.7867 62.7672 35.69 63.2072 35.69C63.6605 35.69 64.0572 35.7867 64.3972 35.98C64.7372 36.1733 65.0005 36.4367 65.1872 36.77C65.3739 37.1033 65.4672 37.4767 65.4672 37.89C65.4672 38.3033 65.3739 38.68 65.1872 39.02C65.0005 39.3533 64.7339 39.6167 64.3872 39.81C64.0472 40.0033 63.6505 40.1 63.1972 40.1C62.7572 40.1 62.3639 40.01 62.0172 39.83C61.6772 39.6433 61.4072 39.3867 61.2072 39.06C61.0139 38.7267 60.9172 38.3367 60.9172 37.89ZM61.8472 37.9C61.8472 38.1667 61.9072 38.41 62.0272 38.63C62.1472 38.8433 62.3072 39.0133 62.5072 39.14C62.7139 39.2667 62.9405 39.33 63.1872 39.33C63.4472 39.33 63.6772 39.2667 63.8772 39.14C64.0839 39.0133 64.2439 38.8433 64.3572 38.63C64.4705 38.41 64.5272 38.1667 64.5272 37.9C64.5272 37.6333 64.4705 37.3933 64.3572 37.18C64.2439 36.96 64.0839 36.7867 63.8772 36.66C63.6772 36.5267 63.4472 36.46 63.1872 36.46C62.9339 36.46 62.7039 36.5267 62.4972 36.66C62.2972 36.7933 62.1372 36.97 62.0172 37.19C61.9039 37.4033 61.8472 37.64 61.8472 37.9ZM70.1705 40.1C69.7905 40.1 69.4438 40.01 69.1305 39.83C68.8238 39.6433 68.5805 39.3833 68.4005 39.05C68.2205 38.71 68.1305 38.32 68.1305 37.88C68.1305 37.42 68.2238 37.0267 68.4105 36.7C68.6038 36.3733 68.8638 36.1233 69.1905 35.95C69.5171 35.7767 69.8838 35.69 70.2905 35.69C70.6171 35.69 70.9271 35.76 71.2205 35.9C71.5205 36.04 71.7538 36.2333 71.9205 36.48L71.8805 36.81V32.26H72.8005V40H71.8705V38.97L71.9705 39.23C71.7771 39.4833 71.5271 39.6933 71.2205 39.86C70.9138 40.02 70.5638 40.1 70.1705 40.1ZM70.4605 39.31C70.7071 39.31 70.9271 39.2667 71.1205 39.18C71.3138 39.0867 71.4738 38.96 71.6005 38.8C71.7271 38.64 71.8171 38.45 71.8705 38.23V37.45C71.8171 37.25 71.7205 37.0767 71.5805 36.93C71.4471 36.7767 71.2838 36.6567 71.0905 36.57C70.9038 36.4767 70.6938 36.43 70.4605 36.43C70.2071 36.43 69.9738 36.4933 69.7605 36.62C69.5538 36.74 69.3871 36.9067 69.2605 37.12C69.1338 37.3333 69.0705 37.58 69.0705 37.86C69.0705 38.1333 69.1338 38.38 69.2605 38.6C69.3871 38.8133 69.5571 38.9867 69.7705 39.12C69.9838 39.2467 70.2138 39.31 70.4605 39.31ZM75.6382 40.1C75.1649 40.1 74.7582 40.0067 74.4182 39.82C74.0782 39.6267 73.8149 39.3667 73.6282 39.04C73.4482 38.7067 73.3582 38.3267 73.3582 37.9C73.3582 37.4933 73.4615 37.1233 73.6682 36.79C73.8749 36.4567 74.1515 36.19 74.4982 35.99C74.8449 35.79 75.2315 35.69 75.6582 35.69C76.2049 35.69 76.6582 35.85 77.0182 36.17C77.3782 36.49 77.6215 36.93 77.7482 37.49L74.3382 38.69L74.1182 38.14L76.9182 37.12L76.7182 37.25C76.6382 37.03 76.5049 36.84 76.3182 36.68C76.1315 36.5133 75.8882 36.43 75.5882 36.43C75.3349 36.43 75.1082 36.4933 74.9082 36.62C74.7082 36.74 74.5515 36.9067 74.4382 37.12C74.3249 37.3333 74.2682 37.5767 74.2682 37.85C74.2682 38.1367 74.3282 38.39 74.4482 38.61C74.5682 38.8233 74.7315 38.9933 74.9382 39.12C75.1515 39.24 75.3915 39.3 75.6582 39.3C75.8382 39.3 76.0115 39.2667 76.1782 39.2C76.3515 39.1333 76.5115 39.0467 76.6582 38.94L77.0882 39.63C76.8815 39.77 76.6482 39.8833 76.3882 39.97C76.1349 40.0567 75.8849 40.1 75.6382 40.1ZM78.2135 32.26H79.1435V40H78.2135V32.26ZM80.0526 35.86H80.9826V40H80.0526V35.86ZM79.9826 34.36C79.9826 34.2133 80.0392 34.09 80.1526 33.99C80.2726 33.89 80.4026 33.84 80.5426 33.84C80.6826 33.84 80.8059 33.89 80.9126 33.99C81.0259 34.09 81.0826 34.2133 81.0826 34.36C81.0826 34.5133 81.0259 34.64 80.9126 34.74C80.8059 34.8333 80.6826 34.88 80.5426 34.88C80.4026 34.88 80.2726 34.83 80.1526 34.73C80.0392 34.63 79.9826 34.5067 79.9826 34.36ZM85.2516 39.62C85.065 39.7667 84.8416 39.8833 84.5816 39.97C84.3216 40.0567 84.0616 40.1 83.8016 40.1C83.3483 40.1 82.9516 40.01 82.6116 39.83C82.2716 39.65 82.005 39.4 81.8116 39.08C81.625 38.7533 81.5316 38.37 81.5316 37.93C81.5316 37.49 81.6316 37.1067 81.8316 36.78C82.0383 36.4533 82.305 36.2033 82.6316 36.03C82.965 35.85 83.3216 35.76 83.7016 35.76C84.035 35.76 84.3316 35.8067 84.5916 35.9C84.8583 35.9933 85.085 36.12 85.2716 36.28L84.8116 36.88C84.6916 36.7867 84.545 36.7033 84.3716 36.63C84.1983 36.5567 84.0016 36.52 83.7816 36.52C83.5416 36.52 83.3183 36.5833 83.1116 36.71C82.9116 36.83 82.7516 36.9967 82.6316 37.21C82.5183 37.4233 82.4616 37.6633 82.4616 37.93C82.4616 38.1833 82.5216 38.42 82.6416 38.64C82.7616 38.8533 82.9283 39.0233 83.1416 39.15C83.355 39.27 83.5983 39.33 83.8716 39.33C84.0516 39.33 84.215 39.3033 84.3616 39.25C84.515 39.1967 84.6516 39.1233 84.7716 39.03L85.2516 39.62ZM85.7522 35.86H86.6822V40H85.7522V35.86ZM85.6822 34.36C85.6822 34.2133 85.7389 34.09 85.8522 33.99C85.9722 33.89 86.1022 33.84 86.2422 33.84C86.3822 33.84 86.5055 33.89 86.6122 33.99C86.7255 34.09 86.7822 34.2133 86.7822 34.36C86.7822 34.5133 86.7255 34.64 86.6122 34.74C86.5055 34.8333 86.3822 34.88 86.2422 34.88C86.1022 34.88 85.9722 34.83 85.8522 34.73C85.7389 34.63 85.6822 34.5067 85.6822 34.36ZM87.2313 37.89C87.2313 37.4767 87.3279 37.1033 87.5213 36.77C87.7213 36.4367 87.9946 36.1733 88.3413 35.98C88.6879 35.7867 89.0813 35.69 89.5213 35.69C89.9746 35.69 90.3713 35.7867 90.7113 35.98C91.0513 36.1733 91.3146 36.4367 91.5013 36.77C91.6879 37.1033 91.7812 37.4767 91.7812 37.89C91.7812 38.3033 91.6879 38.68 91.5013 39.02C91.3146 39.3533 91.0479 39.6167 90.7013 39.81C90.3613 40.0033 89.9646 40.1 89.5113 40.1C89.0713 40.1 88.6779 40.01 88.3313 39.83C87.9913 39.6433 87.7213 39.3867 87.5213 39.06C87.3279 38.7267 87.2313 38.3367 87.2313 37.89ZM88.1613 37.9C88.1613 38.1667 88.2213 38.41 88.3413 38.63C88.4613 38.8433 88.6213 39.0133 88.8213 39.14C89.0279 39.2667 89.2546 39.33 89.5013 39.33C89.7613 39.33 89.9913 39.2667 90.1913 39.14C90.3979 39.0133 90.5579 38.8433 90.6713 38.63C90.7846 38.41 90.8413 38.1667 90.8413 37.9C90.8413 37.6333 90.7846 37.3933 90.6713 37.18C90.5579 36.96 90.3979 36.7867 90.1913 36.66C89.9913 36.5267 89.7613 36.46 89.5013 36.46C89.2479 36.46 89.0179 36.5267 88.8113 36.66C88.6113 36.7933 88.4513 36.97 88.3313 37.19C88.2179 37.4033 88.1613 37.64 88.1613 37.9ZM93.6505 40.16C93.2771 40.16 92.9671 40.0467 92.7205 39.82C92.4805 39.5867 92.3538 39.2867 92.3405 38.92V35.86H93.2705V38.59C93.2838 38.8167 93.3471 39 93.4605 39.14C93.5805 39.28 93.7671 39.3533 94.0205 39.36C94.2538 39.36 94.4605 39.2933 94.6405 39.16C94.8271 39.02 94.9771 38.8333 95.0905 38.6C95.2038 38.36 95.2605 38.09 95.2605 37.79V35.86H96.1905V40H95.3405L95.2605 38.98L95.3105 39.16C95.2305 39.3533 95.1071 39.5267 94.9405 39.68C94.7805 39.8267 94.5905 39.9433 94.3705 40.03C94.1505 40.1167 93.9105 40.16 93.6505 40.16ZM98.2595 40.08C97.9661 40.08 97.6795 40.03 97.3995 39.93C97.1261 39.8233 96.8995 39.6667 96.7195 39.46L97.1095 38.92C97.2828 39.0867 97.4595 39.2133 97.6395 39.3C97.8261 39.38 98.0095 39.42 98.1895 39.42C98.3228 39.42 98.4461 39.4033 98.5595 39.37C98.6728 39.3367 98.7628 39.2833 98.8295 39.21C98.9028 39.13 98.9395 39.0233 98.9395 38.89C98.9395 38.7433 98.8895 38.6267 98.7895 38.54C98.6961 38.4533 98.5728 38.3833 98.4195 38.33C98.2728 38.2767 98.1161 38.2267 97.9495 38.18C97.6095 38.0667 97.3495 37.91 97.1695 37.71C96.9895 37.51 96.8995 37.2667 96.8995 36.98C96.8995 36.76 96.9528 36.5567 97.0595 36.37C97.1728 36.1767 97.3361 36.02 97.5495 35.9C97.7695 35.78 98.0395 35.72 98.3595 35.72C98.6461 35.72 98.9028 35.7567 99.1295 35.83C99.3561 35.8967 99.5695 36.01 99.7695 36.17L99.3995 36.75C99.2795 36.6233 99.1361 36.53 98.9695 36.47C98.8028 36.41 98.6528 36.3767 98.5195 36.37C98.4061 36.3633 98.2961 36.38 98.1895 36.42C98.0895 36.46 98.0061 36.5167 97.9395 36.59C97.8728 36.6633 97.8395 36.75 97.8395 36.85C97.8395 36.99 97.8861 37.1033 97.9795 37.19C98.0728 37.2767 98.1928 37.3467 98.3395 37.4C98.4928 37.4467 98.6428 37.4967 98.7895 37.55C98.9961 37.61 99.1795 37.69 99.3395 37.79C99.4995 37.89 99.6261 38.0133 99.7195 38.16C99.8195 38.3067 99.8695 38.49 99.8695 38.71C99.8695 38.9567 99.8095 39.1867 99.6895 39.4C99.5761 39.6067 99.3995 39.7733 99.1595 39.9C98.9261 40.02 98.6261 40.08 98.2595 40.08ZM103.766 35.86L103.856 37.06L103.806 36.9C103.912 36.6467 104.066 36.4333 104.266 36.26C104.472 36.08 104.686 35.9433 104.906 35.85C105.132 35.75 105.329 35.7 105.496 35.7L105.446 36.62C105.132 36.6 104.856 36.66 104.616 36.8C104.382 36.94 104.196 37.1267 104.056 37.36C103.922 37.5933 103.856 37.8433 103.856 38.11V40H102.936V35.86H103.766ZM107.74 40.1C107.266 40.1 106.86 40.0067 106.52 39.82C106.18 39.6267 105.916 39.3667 105.73 39.04C105.55 38.7067 105.46 38.3267 105.46 37.9C105.46 37.4933 105.563 37.1233 105.77 36.79C105.976 36.4567 106.253 36.19 106.6 35.99C106.946 35.79 107.333 35.69 107.76 35.69C108.306 35.69 108.76 35.85 109.12 36.17C109.48 36.49 109.723 36.93 109.85 37.49L106.44 38.69L106.22 38.14L109.02 37.12L108.82 37.25C108.74 37.03 108.606 36.84 108.42 36.68C108.233 36.5133 107.99 36.43 107.69 36.43C107.436 36.43 107.21 36.4933 107.01 36.62C106.81 36.74 106.653 36.9067 106.54 37.12C106.426 37.3333 106.37 37.5767 106.37 37.85C106.37 38.1367 106.43 38.39 106.55 38.61C106.67 38.8233 106.833 38.9933 107.04 39.12C107.253 39.24 107.493 39.3 107.76 39.3C107.94 39.3 108.113 39.2667 108.28 39.2C108.453 39.1333 108.613 39.0467 108.76 38.94L109.19 39.63C108.983 39.77 108.75 39.8833 108.49 39.97C108.236 40.0567 107.986 40.1 107.74 40.1ZM113.675 39.62C113.488 39.7667 113.265 39.8833 113.005 39.97C112.745 40.0567 112.485 40.1 112.225 40.1C111.772 40.1 111.375 40.01 111.035 39.83C110.695 39.65 110.428 39.4 110.235 39.08C110.048 38.7533 109.955 38.37 109.955 37.93C109.955 37.49 110.055 37.1067 110.255 36.78C110.462 36.4533 110.728 36.2033 111.055 36.03C111.388 35.85 111.745 35.76 112.125 35.76C112.458 35.76 112.755 35.8067 113.015 35.9C113.282 35.9933 113.508 36.12 113.695 36.28L113.235 36.88C113.115 36.7867 112.968 36.7033 112.795 36.63C112.622 36.5567 112.425 36.52 112.205 36.52C111.965 36.52 111.742 36.5833 111.535 36.71C111.335 36.83 111.175 36.9967 111.055 37.21C110.942 37.4233 110.885 37.6633 110.885 37.93C110.885 38.1833 110.945 38.42 111.065 38.64C111.185 38.8533 111.352 39.0233 111.565 39.15C111.778 39.27 112.022 39.33 112.295 39.33C112.475 39.33 112.638 39.3033 112.785 39.25C112.938 39.1967 113.075 39.1233 113.195 39.03L113.675 39.62ZM114.176 35.86H115.106V40H114.176V35.86ZM114.106 34.36C114.106 34.2133 114.162 34.09 114.276 33.99C114.396 33.89 114.526 33.84 114.666 33.84C114.806 33.84 114.929 33.89 115.036 33.99C115.149 34.09 115.206 34.2133 115.206 34.36C115.206 34.5133 115.149 34.64 115.036 34.74C114.929 34.8333 114.806 34.88 114.666 34.88C114.526 34.88 114.396 34.83 114.276 34.73C114.162 34.63 114.106 34.5067 114.106 34.36ZM118.455 40.1C118.141 40.1 117.838 40.0267 117.545 39.88C117.258 39.7333 117.035 39.5367 116.875 39.29L116.935 39V41.99H116.015V35.8H116.815L116.945 36.86L116.845 36.57C117.045 36.3167 117.298 36.1067 117.605 35.94C117.911 35.7733 118.255 35.69 118.635 35.69C119.021 35.69 119.368 35.7833 119.675 35.97C119.988 36.1567 120.235 36.4167 120.415 36.75C120.595 37.0833 120.685 37.4733 120.685 37.92C120.685 38.3667 120.588 38.7533 120.395 39.08C120.201 39.4067 119.935 39.66 119.595 39.84C119.261 40.0133 118.881 40.1 118.455 40.1ZM118.275 39.36C118.541 39.36 118.785 39.3 119.005 39.18C119.231 39.0533 119.411 38.8833 119.545 38.67C119.678 38.45 119.745 38.2033 119.745 37.93C119.745 37.65 119.681 37.4033 119.555 37.19C119.428 36.97 119.258 36.7967 119.045 36.67C118.838 36.5433 118.605 36.48 118.345 36.48C118.105 36.48 117.888 36.5267 117.695 36.62C117.501 36.7133 117.341 36.8433 117.215 37.01C117.088 37.17 116.998 37.3567 116.945 37.57V38.26C116.978 38.4733 117.058 38.6633 117.185 38.83C117.311 38.9967 117.468 39.1267 117.655 39.22C117.848 39.3133 118.055 39.36 118.275 39.36ZM123.162 40.1C122.689 40.1 122.282 40.0067 121.942 39.82C121.602 39.6267 121.339 39.3667 121.152 39.04C120.972 38.7067 120.882 38.3267 120.882 37.9C120.882 37.4933 120.986 37.1233 121.192 36.79C121.399 36.4567 121.676 36.19 122.022 35.99C122.369 35.79 122.756 35.69 123.182 35.69C123.729 35.69 124.182 35.85 124.542 36.17C124.902 36.49 125.146 36.93 125.272 37.49L121.862 38.69L121.642 38.14L124.442 37.12L124.242 37.25C124.162 37.03 124.029 36.84 123.842 36.68C123.656 36.5133 123.412 36.43 123.112 36.43C122.859 36.43 122.632 36.4933 122.432 36.62C122.232 36.74 122.076 36.9067 121.962 37.12C121.849 37.3333 121.792 37.5767 121.792 37.85C121.792 38.1367 121.852 38.39 121.972 38.61C122.092 38.8233 122.256 38.9933 122.462 39.12C122.676 39.24 122.916 39.3 123.182 39.3C123.362 39.3 123.536 39.2667 123.702 39.2C123.876 39.1333 124.036 39.0467 124.182 38.94L124.612 39.63C124.406 39.77 124.172 39.8833 123.912 39.97C123.659 40.0567 123.409 40.1 123.162 40.1ZM126.898 40.08C126.604 40.08 126.318 40.03 126.038 39.93C125.764 39.8233 125.538 39.6667 125.358 39.46L125.748 38.92C125.921 39.0867 126.098 39.2133 126.278 39.3C126.464 39.38 126.648 39.42 126.828 39.42C126.961 39.42 127.084 39.4033 127.198 39.37C127.311 39.3367 127.401 39.2833 127.468 39.21C127.541 39.13 127.578 39.0233 127.578 38.89C127.578 38.7433 127.528 38.6267 127.428 38.54C127.334 38.4533 127.211 38.3833 127.058 38.33C126.911 38.2767 126.754 38.2267 126.588 38.18C126.248 38.0667 125.988 37.91 125.808 37.71C125.628 37.51 125.538 37.2667 125.538 36.98C125.538 36.76 125.591 36.5567 125.698 36.37C125.811 36.1767 125.974 36.02 126.188 35.9C126.408 35.78 126.678 35.72 126.998 35.72C127.284 35.72 127.541 35.7567 127.768 35.83C127.994 35.8967 128.208 36.01 128.408 36.17L128.038 36.75C127.918 36.6233 127.774 36.53 127.608 36.47C127.441 36.41 127.291 36.3767 127.158 36.37C127.044 36.3633 126.934 36.38 126.828 36.42C126.728 36.46 126.644 36.5167 126.578 36.59C126.511 36.6633 126.478 36.75 126.478 36.85C126.478 36.99 126.524 37.1033 126.618 37.19C126.711 37.2767 126.831 37.3467 126.978 37.4C127.131 37.4467 127.281 37.4967 127.428 37.55C127.634 37.61 127.818 37.69 127.978 37.79C128.138 37.89 128.264 38.0133 128.358 38.16C128.458 38.3067 128.508 38.49 128.508 38.71C128.508 38.9567 128.448 39.1867 128.328 39.4C128.214 39.6067 128.038 39.7733 127.798 39.9C127.564 40.02 127.264 40.08 126.898 40.08Z" fill="white"/>
</svg>
